<svg width="40" height="40" viewBox="0 0 40 40" fill="none" xmlns="http://www.w3.org/2000/svg">
<path d="M40 20C40 31.0457 31.0457 40 20 40C8.9543 40 0 31.0457 0 20C0 8.9543 8.9543 0 20 0C31.0457 0 40 8.9543 40 20Z" fill="#6366F1"/>
<path d="M16.84 25.6308H17.5297C16.8191 28.0654 15.0428 29.2826 12.2008 29.2826C10.3722 29.2826 8.83102 28.6609 7.57716 27.4175C6.33375 26.1741 5.71205 24.5284 5.71205 22.4805C5.71205 20.3803 6.386 18.6771 7.73389 17.371C9.08179 16.0649 10.6752 15.4118 12.5142 15.4118C13.6218 15.4118 14.6406 15.6574 15.5705 16.1485C16.5005 16.6291 16.9654 17.2195 16.9654 17.9196C16.9654 18.1808 16.8766 18.4263 16.699 18.6562C16.5318 18.8861 16.2862 19.001 15.9623 19.001C15.2727 19.001 14.8495 18.5987 14.6928 17.7942C14.5674 17.1881 14.3741 16.765 14.1129 16.5246C13.8412 16.2843 13.3136 16.1642 12.5299 16.1642C11.1298 16.1642 10.0744 16.65 9.36391 17.6218C8.66384 18.5935 8.3138 20.0563 8.3138 22.0103C8.3138 24.0269 8.68996 25.6047 9.44227 26.7436C10.205 27.8825 11.3544 28.452 12.8904 28.452C14.9592 28.452 16.2758 27.5116 16.84 25.6308Z" fill="white"/>
<path d="M26.7769 15.9291H31.949V16.65C30.9982 16.6709 29.7234 17.3814 28.1248 18.7816C27.6128 19.2204 26.8187 19.863 25.7424 20.7094L30.319 26.0696C31.0086 26.8742 31.552 27.4019 31.949 27.6526C32.3461 27.893 32.7536 28.0236 33.1715 28.0445V28.7654H26.7769V28.0445C27.8426 28.0236 28.3755 27.7937 28.3755 27.3548C28.3755 27.1563 28.0255 26.6495 27.3254 25.8345L24.034 22.0103L23.3601 22.5118V24.3613C23.3601 25.7301 23.3758 26.5921 23.4071 26.9473C23.4489 27.2921 23.6004 27.5638 23.8616 27.7623C24.1229 27.9504 24.5774 28.0445 25.2252 28.0445V28.7654H18.7208V28.0445H19.2067C19.959 28.0445 20.4449 27.94 20.6643 27.731C20.8942 27.5116 21.0248 27.2556 21.0561 26.963C21.0875 26.66 21.1032 25.7927 21.1032 24.3613V11.4935C21.1032 10.2501 20.983 9.45602 20.7427 9.11121C20.5128 8.7664 19.9486 8.59399 19.05 8.59399V7.87302C19.6664 7.87302 20.4031 7.79988 21.2599 7.6536C22.1271 7.50731 22.7175 7.36103 23.031 7.21475H23.3601V21.6498L24.708 20.7094C26.8918 19.163 27.9837 18.0502 27.9837 17.371C27.9837 16.9112 27.5814 16.6709 26.7769 16.65V15.9291Z" fill="white"/>
</svg>
