<svg width="16" height="16" viewBox="0 0 16 16" fill="none" xmlns="http://www.w3.org/2000/svg">
<g id="Vector">
<path d="M16 8C16 12.4183 12.4183 16 8 16C3.58172 16 0 12.4183 0 8C0 3.58172 3.58172 0 8 0C12.4183 0 16 3.58172 16 8Z" fill="#6366F1"/>
<path d="M6.73601 10.2523H7.01186C6.72766 11.2261 6.01714 11.7131 4.8803 11.7131C4.14889 11.7131 3.53241 11.4644 3.03086 10.967C2.5335 10.4697 2.28482 9.81137 2.28482 8.99219C2.28482 8.1521 2.5544 7.47084 3.09356 6.9484C3.63272 6.42596 4.27009 6.16474 5.00569 6.16474C5.44872 6.16474 5.85622 6.26296 6.2282 6.45939C6.60018 6.65165 6.78617 6.8878 6.78617 7.16782C6.78617 7.27231 6.75064 7.37053 6.67959 7.46248C6.61272 7.55443 6.5145 7.60041 6.38493 7.60041C6.10909 7.60041 5.93981 7.43949 5.87712 7.11767C5.82697 6.87526 5.74965 6.70599 5.64516 6.60986C5.53649 6.51373 5.32542 6.46566 5.01196 6.46566C4.4519 6.46566 4.02977 6.66001 3.74556 7.04871C3.46554 7.4374 3.32552 8.02254 3.32552 8.80411C3.32552 9.61076 3.47598 10.2419 3.77691 10.6974C4.08202 11.153 4.54176 11.3808 5.15615 11.3808C5.9837 11.3808 6.51032 11.0046 6.73601 10.2523Z" fill="white"/>
<path d="M10.7107 6.37162H12.7796V6.66001C12.3993 6.66837 11.8894 6.95258 11.2499 7.51264C11.0451 7.68818 10.7275 7.94522 10.297 8.28376L12.1276 10.4279C12.4035 10.7497 12.6208 10.9607 12.7796 11.0611C12.9384 11.1572 13.1014 11.2094 13.2686 11.2178V11.5062H10.7107V11.2178C11.1371 11.2094 11.3502 11.1175 11.3502 10.9419C11.3502 10.8625 11.2102 10.6598 10.9302 10.3338L9.61362 8.80411L9.34404 9.00473V9.7445C9.34404 10.292 9.35031 10.6368 9.36285 10.7789C9.37957 10.9169 9.44017 11.0255 9.54466 11.1049C9.64914 11.1802 9.83095 11.2178 10.0901 11.2178V11.5062H7.48833V11.2178H7.68268C7.9836 11.2178 8.17795 11.176 8.26572 11.0924C8.35767 11.0046 8.40992 10.9022 8.42245 10.7852C8.43499 10.664 8.44126 10.3171 8.44126 9.7445V4.59742C8.44126 4.10005 8.3932 3.78241 8.29707 3.64448C8.20512 3.50656 7.97942 3.4376 7.61998 3.4376V3.14921C7.86658 3.14921 8.16123 3.11995 8.50395 3.06144C8.85086 3.00293 9.087 2.94441 9.21238 2.8859H9.34404V8.65992L9.8832 8.28376C10.7567 7.66519 11.1935 7.22007 11.1935 6.9484C11.1935 6.7645 11.0326 6.66837 10.7107 6.66001V6.37162Z" fill="white"/>
</g>
</svg>
