<svg xmlns="http://www.w3.org/2000/svg" width="600" height="300" viewBox="0 0 600 300" role="img" aria-label="A dense grid of health plan options with a single one highlighted as the match">
<rect width="600" height="300" fill="#111111"/>
<defs>
<filter id="glow" x="-300%" y="-300%" width="700%" height="700%"><feGaussianBlur stdDeviation="8" result="b"/><feMerge><feMergeNode in="b"/><feMergeNode in="b"/></feMerge></filter>
</defs>
<g fill="#3f3f46">
<rect x="52" y="34" width="12" height="12" rx="1" fill-opacity="0.404"/>
<rect x="74" y="34" width="12" height="12" rx="1" fill-opacity="0.406"/>
<rect x="96" y="34" width="12" height="12" rx="1" fill-opacity="0.410"/>
<rect x="118" y="34" width="12" height="12" rx="1" fill-opacity="0.416"/>
<rect x="140" y="34" width="12" height="12" rx="1" fill-opacity="0.424"/>
<rect x="162" y="34" width="12" height="12" rx="1" fill-opacity="0.435"/>
<rect x="184" y="34" width="12" height="12" rx="1" fill-opacity="0.449"/>
<rect x="206" y="34" width="12" height="12" rx="1" fill-opacity="0.468"/>
<rect x="228" y="34" width="12" height="12" rx="1" fill-opacity="0.490"/>
<rect x="250" y="34" width="12" height="12" rx="1" fill-opacity="0.516"/>
<rect x="272" y="34" width="12" height="12" rx="1" fill-opacity="0.545"/>
<rect x="294" y="34" width="12" height="12" rx="1" fill-opacity="0.574"/>
<rect x="316" y="34" width="12" height="12" rx="1" fill-opacity="0.602"/>
<rect x="338" y="34" width="12" height="12" rx="1" fill-opacity="0.627"/>
<rect x="360" y="34" width="12" height="12" rx="1" fill-opacity="0.647"/>
<rect x="382" y="34" width="12" height="12" rx="1" fill-opacity="0.660"/>
<rect x="404" y="34" width="12" height="12" rx="1" fill-opacity="0.664"/>
<rect x="426" y="34" width="12" height="12" rx="1" fill-opacity="0.660"/>
<rect x="448" y="34" width="12" height="12" rx="1" fill-opacity="0.647"/>
<rect x="470" y="34" width="12" height="12" rx="1" fill-opacity="0.627"/>
<rect x="492" y="34" width="12" height="12" rx="1" fill-opacity="0.602"/>
<rect x="514" y="34" width="12" height="12" rx="1" fill-opacity="0.574"/>
<rect x="536" y="34" width="12" height="12" rx="1" fill-opacity="0.545"/>
<rect x="52" y="56" width="12" height="12" rx="1" fill-opacity="0.405"/>
<rect x="74" y="56" width="12" height="12" rx="1" fill-opacity="0.408"/>
<rect x="96" y="56" width="12" height="12" rx="1" fill-opacity="0.412"/>
<rect x="118" y="56" width="12" height="12" rx="1" fill-opacity="0.419"/>
<rect x="140" y="56" width="12" height="12" rx="1" fill-opacity="0.429"/>
<rect x="162" y="56" width="12" height="12" rx="1" fill-opacity="0.443"/>
<rect x="184" y="56" width="12" height="12" rx="1" fill-opacity="0.462"/>
<rect x="206" y="56" width="12" height="12" rx="1" fill-opacity="0.485"/>
<rect x="228" y="56" width="12" height="12" rx="1" fill-opacity="0.512"/>
<rect x="250" y="56" width="12" height="12" rx="1" fill-opacity="0.545"/>
<rect x="272" y="56" width="12" height="12" rx="1" fill-opacity="0.580"/>
<rect x="294" y="56" width="12" height="12" rx="1" fill-opacity="0.616"/>
<rect x="316" y="56" width="12" height="12" rx="1" fill-opacity="0.651"/>
<rect x="338" y="56" width="12" height="12" rx="1" fill-opacity="0.682"/>
<rect x="360" y="56" width="12" height="12" rx="1" fill-opacity="0.707"/>
<rect x="382" y="56" width="12" height="12" rx="1" fill-opacity="0.723"/>
<rect x="404" y="56" width="12" height="12" rx="1" fill-opacity="0.728"/>
<rect x="426" y="56" width="12" height="12" rx="1" fill-opacity="0.723"/>
<rect x="448" y="56" width="12" height="12" rx="1" fill-opacity="0.707"/>
<rect x="470" y="56" width="12" height="12" rx="1" fill-opacity="0.682"/>
<rect x="492" y="56" width="12" height="12" rx="1" fill-opacity="0.651"/>
<rect x="514" y="56" width="12" height="12" rx="1" fill-opacity="0.616"/>
<rect x="536" y="56" width="12" height="12" rx="1" fill-opacity="0.580"/>
<rect x="52" y="78" width="12" height="12" rx="1" fill-opacity="0.405"/>
<rect x="74" y="78" width="12" height="12" rx="1" fill-opacity="0.409"/>
<rect x="96" y="78" width="12" height="12" rx="1" fill-opacity="0.415"/>
<rect x="118" y="78" width="12" height="12" rx="1" fill-opacity="0.423"/>
<rect x="140" y="78" width="12" height="12" rx="1" fill-opacity="0.435"/>
<rect x="162" y="78" width="12" height="12" rx="1" fill-opacity="0.452"/>
<rect x="184" y="78" width="12" height="12" rx="1" fill-opacity="0.474"/>
<rect x="206" y="78" width="12" height="12" rx="1" fill-opacity="0.502"/>
<rect x="228" y="78" width="12" height="12" rx="1" fill-opacity="0.535"/>
<rect x="250" y="78" width="12" height="12" rx="1" fill-opacity="0.574"/>
<rect x="272" y="78" width="12" height="12" rx="1" fill-opacity="0.616"/>
<rect x="294" y="78" width="12" height="12" rx="1" fill-opacity="0.660"/>
<rect x="316" y="78" width="12" height="12" rx="1" fill-opacity="0.702"/>
<rect x="338" y="78" width="12" height="12" rx="1" fill-opacity="0.740"/>
<rect x="360" y="78" width="12" height="12" rx="1" fill-opacity="0.769"/>
<rect x="382" y="78" width="12" height="12" rx="1" fill-opacity="0.788"/>
<rect x="404" y="78" width="12" height="12" rx="1" fill-opacity="0.795"/>
<rect x="426" y="78" width="12" height="12" rx="1" fill-opacity="0.788"/>
<rect x="448" y="78" width="12" height="12" rx="1" fill-opacity="0.769"/>
<rect x="470" y="78" width="12" height="12" rx="1" fill-opacity="0.740"/>
<rect x="492" y="78" width="12" height="12" rx="1" fill-opacity="0.702"/>
<rect x="514" y="78" width="12" height="12" rx="1" fill-opacity="0.660"/>
<rect x="536" y="78" width="12" height="12" rx="1" fill-opacity="0.616"/>
<rect x="52" y="100" width="12" height="12" rx="1" fill-opacity="0.406"/>
<rect x="74" y="100" width="12" height="12" rx="1" fill-opacity="0.411"/>
<rect x="96" y="100" width="12" height="12" rx="1" fill-opacity="0.417"/>
<rect x="118" y="100" width="12" height="12" rx="1" fill-opacity="0.427"/>
<rect x="140" y="100" width="12" height="12" rx="1" fill-opacity="0.441"/>
<rect x="162" y="100" width="12" height="12" rx="1" fill-opacity="0.460"/>
<rect x="184" y="100" width="12" height="12" rx="1" fill-opacity="0.486"/>
<rect x="206" y="100" width="12" height="12" rx="1" fill-opacity="0.518"/>
<rect x="228" y="100" width="12" height="12" rx="1" fill-opacity="0.557"/>
<rect x="250" y="100" width="12" height="12" rx="1" fill-opacity="0.602"/>
<rect x="272" y="100" width="12" height="12" rx="1" fill-opacity="0.651"/>
<rect x="294" y="100" width="12" height="12" rx="1" fill-opacity="0.702"/>
<rect x="316" y="100" width="12" height="12" rx="1" fill-opacity="0.751"/>
<rect x="338" y="100" width="12" height="12" rx="1" fill-opacity="0.795"/>
<rect x="360" y="100" width="12" height="12" rx="1" fill-opacity="0.829"/>
<rect x="382" y="100" width="12" height="12" rx="1" fill-opacity="0.851"/>
<rect x="404" y="100" width="12" height="12" rx="1" fill-opacity="0.859"/>
<rect x="426" y="100" width="12" height="12" rx="1" fill-opacity="0.851"/>
<rect x="448" y="100" width="12" height="12" rx="1" fill-opacity="0.829"/>
<rect x="470" y="100" width="12" height="12" rx="1" fill-opacity="0.795"/>
<rect x="492" y="100" width="12" height="12" rx="1" fill-opacity="0.751"/>
<rect x="514" y="100" width="12" height="12" rx="1" fill-opacity="0.702"/>
<rect x="536" y="100" width="12" height="12" rx="1" fill-opacity="0.651"/>
<rect x="52" y="122" width="12" height="12" rx="1" fill-opacity="0.407"/>
<rect x="74" y="122" width="12" height="12" rx="1" fill-opacity="0.412"/>
<rect x="96" y="122" width="12" height="12" rx="1" fill-opacity="0.419"/>
<rect x="118" y="122" width="12" height="12" rx="1" fill-opacity="0.430"/>
<rect x="140" y="122" width="12" height="12" rx="1" fill-opacity="0.446"/>
<rect x="162" y="122" width="12" height="12" rx="1" fill-opacity="0.468"/>
<rect x="184" y="122" width="12" height="12" rx="1" fill-opacity="0.497"/>
<rect x="206" y="122" width="12" height="12" rx="1" fill-opacity="0.533"/>
<rect x="228" y="122" width="12" height="12" rx="1" fill-opacity="0.577"/>
<rect x="250" y="122" width="12" height="12" rx="1" fill-opacity="0.627"/>
<rect x="272" y="122" width="12" height="12" rx="1" fill-opacity="0.682"/>
<rect x="294" y="122" width="12" height="12" rx="1" fill-opacity="0.740"/>
<rect x="316" y="122" width="12" height="12" rx="1" fill-opacity="0.795"/>
<rect x="338" y="122" width="12" height="12" rx="1" fill-opacity="0.717"/>
<rect x="360" y="122" width="12" height="12" rx="1" fill-opacity="0.750"/>
<rect x="382" y="122" width="12" height="12" rx="1" fill-opacity="0.771"/>
<rect x="404" y="122" width="12" height="12" rx="1" fill-opacity="0.779"/>
<rect x="426" y="122" width="12" height="12" rx="1" fill-opacity="0.771"/>
<rect x="448" y="122" width="12" height="12" rx="1" fill-opacity="0.750"/>
<rect x="470" y="122" width="12" height="12" rx="1" fill-opacity="0.717"/>
<rect x="492" y="122" width="12" height="12" rx="1" fill-opacity="0.795"/>
<rect x="514" y="122" width="12" height="12" rx="1" fill-opacity="0.740"/>
<rect x="536" y="122" width="12" height="12" rx="1" fill-opacity="0.682"/>
<rect x="52" y="144" width="12" height="12" rx="1" fill-opacity="0.408"/>
<rect x="74" y="144" width="12" height="12" rx="1" fill-opacity="0.413"/>
<rect x="96" y="144" width="12" height="12" rx="1" fill-opacity="0.421"/>
<rect x="118" y="144" width="12" height="12" rx="1" fill-opacity="0.433"/>
<rect x="140" y="144" width="12" height="12" rx="1" fill-opacity="0.450"/>
<rect x="162" y="144" width="12" height="12" rx="1" fill-opacity="0.474"/>
<rect x="184" y="144" width="12" height="12" rx="1" fill-opacity="0.505"/>
<rect x="206" y="144" width="12" height="12" rx="1" fill-opacity="0.545"/>
<rect x="228" y="144" width="12" height="12" rx="1" fill-opacity="0.592"/>
<rect x="250" y="144" width="12" height="12" rx="1" fill-opacity="0.647"/>
<rect x="272" y="144" width="12" height="12" rx="1" fill-opacity="0.707"/>
<rect x="294" y="144" width="12" height="12" rx="1" fill-opacity="0.769"/>
<rect x="316" y="144" width="12" height="12" rx="1" fill-opacity="0.829"/>
<rect x="338" y="144" width="12" height="12" rx="1" fill-opacity="0.750"/>
<rect x="360" y="144" width="12" height="12" rx="1" fill-opacity="0.573"/>
<rect x="382" y="144" width="12" height="12" rx="1" fill-opacity="0.590"/>
<rect x="404" y="144" width="12" height="12" rx="1" fill-opacity="0.596"/>
<rect x="426" y="144" width="12" height="12" rx="1" fill-opacity="0.590"/>
<rect x="448" y="144" width="12" height="12" rx="1" fill-opacity="0.573"/>
<rect x="470" y="144" width="12" height="12" rx="1" fill-opacity="0.750"/>
<rect x="492" y="144" width="12" height="12" rx="1" fill-opacity="0.829"/>
<rect x="514" y="144" width="12" height="12" rx="1" fill-opacity="0.769"/>
<rect x="536" y="144" width="12" height="12" rx="1" fill-opacity="0.707"/>
<rect x="52" y="166" width="12" height="12" rx="1" fill-opacity="0.408"/>
<rect x="74" y="166" width="12" height="12" rx="1" fill-opacity="0.414"/>
<rect x="96" y="166" width="12" height="12" rx="1" fill-opacity="0.422"/>
<rect x="118" y="166" width="12" height="12" rx="1" fill-opacity="0.435"/>
<rect x="140" y="166" width="12" height="12" rx="1" fill-opacity="0.453"/>
<rect x="162" y="166" width="12" height="12" rx="1" fill-opacity="0.478"/>
<rect x="184" y="166" width="12" height="12" rx="1" fill-opacity="0.511"/>
<rect x="206" y="166" width="12" height="12" rx="1" fill-opacity="0.552"/>
<rect x="228" y="166" width="12" height="12" rx="1" fill-opacity="0.602"/>
<rect x="250" y="166" width="12" height="12" rx="1" fill-opacity="0.660"/>
<rect x="272" y="166" width="12" height="12" rx="1" fill-opacity="0.723"/>
<rect x="294" y="166" width="12" height="12" rx="1" fill-opacity="0.788"/>
<rect x="316" y="166" width="12" height="12" rx="1" fill-opacity="0.851"/>
<rect x="338" y="166" width="12" height="12" rx="1" fill-opacity="0.771"/>
<rect x="360" y="166" width="12" height="12" rx="1" fill-opacity="0.590"/>
<rect x="382" y="166" width="12" height="12" rx="1" fill-opacity="0.343"/>
<rect x="404" y="166" width="12" height="12" rx="1" fill-opacity="0.347"/>
<rect x="426" y="166" width="12" height="12" rx="1" fill-opacity="0.343"/>
<rect x="448" y="166" width="12" height="12" rx="1" fill-opacity="0.590"/>
<rect x="470" y="166" width="12" height="12" rx="1" fill-opacity="0.771"/>
<rect x="492" y="166" width="12" height="12" rx="1" fill-opacity="0.851"/>
<rect x="514" y="166" width="12" height="12" rx="1" fill-opacity="0.788"/>
<rect x="536" y="166" width="12" height="12" rx="1" fill-opacity="0.723"/>
<rect x="52" y="188" width="12" height="12" rx="1" fill-opacity="0.408"/>
<rect x="74" y="188" width="12" height="12" rx="1" fill-opacity="0.414"/>
<rect x="96" y="188" width="12" height="12" rx="1" fill-opacity="0.423"/>
<rect x="118" y="188" width="12" height="12" rx="1" fill-opacity="0.435"/>
<rect x="140" y="188" width="12" height="12" rx="1" fill-opacity="0.454"/>
<rect x="162" y="188" width="12" height="12" rx="1" fill-opacity="0.479"/>
<rect x="184" y="188" width="12" height="12" rx="1" fill-opacity="0.512"/>
<rect x="206" y="188" width="12" height="12" rx="1" fill-opacity="0.555"/>
<rect x="228" y="188" width="12" height="12" rx="1" fill-opacity="0.605"/>
<rect x="250" y="188" width="12" height="12" rx="1" fill-opacity="0.664"/>
<rect x="272" y="188" width="12" height="12" rx="1" fill-opacity="0.728"/>
<rect x="294" y="188" width="12" height="12" rx="1" fill-opacity="0.795"/>
<rect x="316" y="188" width="12" height="12" rx="1" fill-opacity="0.859"/>
<rect x="338" y="188" width="12" height="12" rx="1" fill-opacity="0.779"/>
<rect x="360" y="188" width="12" height="12" rx="1" fill-opacity="0.596"/>
<rect x="382" y="188" width="12" height="12" rx="1" fill-opacity="0.347"/>
<rect x="426" y="188" width="12" height="12" rx="1" fill-opacity="0.347"/>
<rect x="448" y="188" width="12" height="12" rx="1" fill-opacity="0.596"/>
<rect x="470" y="188" width="12" height="12" rx="1" fill-opacity="0.779"/>
<rect x="492" y="188" width="12" height="12" rx="1" fill-opacity="0.859"/>
<rect x="514" y="188" width="12" height="12" rx="1" fill-opacity="0.795"/>
<rect x="536" y="188" width="12" height="12" rx="1" fill-opacity="0.728"/>
<rect x="52" y="210" width="12" height="12" rx="1" fill-opacity="0.408"/>
<rect x="74" y="210" width="12" height="12" rx="1" fill-opacity="0.414"/>
<rect x="96" y="210" width="12" height="12" rx="1" fill-opacity="0.422"/>
<rect x="118" y="210" width="12" height="12" rx="1" fill-opacity="0.435"/>
<rect x="140" y="210" width="12" height="12" rx="1" fill-opacity="0.453"/>
<rect x="162" y="210" width="12" height="12" rx="1" fill-opacity="0.478"/>
<rect x="184" y="210" width="12" height="12" rx="1" fill-opacity="0.511"/>
<rect x="206" y="210" width="12" height="12" rx="1" fill-opacity="0.552"/>
<rect x="228" y="210" width="12" height="12" rx="1" fill-opacity="0.602"/>
<rect x="250" y="210" width="12" height="12" rx="1" fill-opacity="0.660"/>
<rect x="272" y="210" width="12" height="12" rx="1" fill-opacity="0.723"/>
<rect x="294" y="210" width="12" height="12" rx="1" fill-opacity="0.788"/>
<rect x="316" y="210" width="12" height="12" rx="1" fill-opacity="0.851"/>
<rect x="338" y="210" width="12" height="12" rx="1" fill-opacity="0.771"/>
<rect x="360" y="210" width="12" height="12" rx="1" fill-opacity="0.590"/>
<rect x="382" y="210" width="12" height="12" rx="1" fill-opacity="0.343"/>
<rect x="404" y="210" width="12" height="12" rx="1" fill-opacity="0.347"/>
<rect x="426" y="210" width="12" height="12" rx="1" fill-opacity="0.343"/>
<rect x="448" y="210" width="12" height="12" rx="1" fill-opacity="0.590"/>
<rect x="470" y="210" width="12" height="12" rx="1" fill-opacity="0.771"/>
<rect x="492" y="210" width="12" height="12" rx="1" fill-opacity="0.851"/>
<rect x="514" y="210" width="12" height="12" rx="1" fill-opacity="0.788"/>
<rect x="536" y="210" width="12" height="12" rx="1" fill-opacity="0.723"/>
<rect x="52" y="232" width="12" height="12" rx="1" fill-opacity="0.408"/>
<rect x="74" y="232" width="12" height="12" rx="1" fill-opacity="0.413"/>
<rect x="96" y="232" width="12" height="12" rx="1" fill-opacity="0.421"/>
<rect x="118" y="232" width="12" height="12" rx="1" fill-opacity="0.433"/>
<rect x="140" y="232" width="12" height="12" rx="1" fill-opacity="0.450"/>
<rect x="162" y="232" width="12" height="12" rx="1" fill-opacity="0.474"/>
<rect x="184" y="232" width="12" height="12" rx="1" fill-opacity="0.505"/>
<rect x="206" y="232" width="12" height="12" rx="1" fill-opacity="0.545"/>
<rect x="228" y="232" width="12" height="12" rx="1" fill-opacity="0.592"/>
<rect x="250" y="232" width="12" height="12" rx="1" fill-opacity="0.647"/>
<rect x="272" y="232" width="12" height="12" rx="1" fill-opacity="0.707"/>
<rect x="294" y="232" width="12" height="12" rx="1" fill-opacity="0.769"/>
<rect x="316" y="232" width="12" height="12" rx="1" fill-opacity="0.829"/>
<rect x="338" y="232" width="12" height="12" rx="1" fill-opacity="0.750"/>
<rect x="360" y="232" width="12" height="12" rx="1" fill-opacity="0.573"/>
<rect x="382" y="232" width="12" height="12" rx="1" fill-opacity="0.590"/>
<rect x="404" y="232" width="12" height="12" rx="1" fill-opacity="0.596"/>
<rect x="426" y="232" width="12" height="12" rx="1" fill-opacity="0.590"/>
<rect x="448" y="232" width="12" height="12" rx="1" fill-opacity="0.573"/>
<rect x="470" y="232" width="12" height="12" rx="1" fill-opacity="0.750"/>
<rect x="492" y="232" width="12" height="12" rx="1" fill-opacity="0.829"/>
<rect x="514" y="232" width="12" height="12" rx="1" fill-opacity="0.769"/>
<rect x="536" y="232" width="12" height="12" rx="1" fill-opacity="0.707"/>
<rect x="52" y="254" width="12" height="12" rx="1" fill-opacity="0.407"/>
<rect x="74" y="254" width="12" height="12" rx="1" fill-opacity="0.412"/>
<rect x="96" y="254" width="12" height="12" rx="1" fill-opacity="0.419"/>
<rect x="118" y="254" width="12" height="12" rx="1" fill-opacity="0.430"/>
<rect x="140" y="254" width="12" height="12" rx="1" fill-opacity="0.446"/>
<rect x="162" y="254" width="12" height="12" rx="1" fill-opacity="0.468"/>
<rect x="184" y="254" width="12" height="12" rx="1" fill-opacity="0.497"/>
<rect x="206" y="254" width="12" height="12" rx="1" fill-opacity="0.533"/>
<rect x="228" y="254" width="12" height="12" rx="1" fill-opacity="0.577"/>
<rect x="250" y="254" width="12" height="12" rx="1" fill-opacity="0.627"/>
<rect x="272" y="254" width="12" height="12" rx="1" fill-opacity="0.682"/>
<rect x="294" y="254" width="12" height="12" rx="1" fill-opacity="0.740"/>
<rect x="316" y="254" width="12" height="12" rx="1" fill-opacity="0.795"/>
<rect x="338" y="254" width="12" height="12" rx="1" fill-opacity="0.717"/>
<rect x="360" y="254" width="12" height="12" rx="1" fill-opacity="0.750"/>
<rect x="382" y="254" width="12" height="12" rx="1" fill-opacity="0.771"/>
<rect x="404" y="254" width="12" height="12" rx="1" fill-opacity="0.779"/>
<rect x="426" y="254" width="12" height="12" rx="1" fill-opacity="0.771"/>
<rect x="448" y="254" width="12" height="12" rx="1" fill-opacity="0.750"/>
<rect x="470" y="254" width="12" height="12" rx="1" fill-opacity="0.717"/>
<rect x="492" y="254" width="12" height="12" rx="1" fill-opacity="0.795"/>
<rect x="514" y="254" width="12" height="12" rx="1" fill-opacity="0.740"/>
<rect x="536" y="254" width="12" height="12" rx="1" fill-opacity="0.682"/>
</g>
<rect x="401" y="185" width="18" height="18" rx="3" fill="#6366f1" filter="url(#glow)"/>
<rect x="401" y="185" width="18" height="18" rx="3" fill="#a5b4fc"/>
<path d="M386 161 H377 V170 M434 161 H443 V170 M386 227 H377 V218 M434 227 H443 V218" fill="none" stroke="#6366f1" stroke-width="2" stroke-linecap="square" stroke-opacity="0.95"/>
</svg>
