<?xml version="1.0" standalone="no"?>
<!DOCTYPE svg PUBLIC "-//W3C//DTD SVG 20010904//EN"
 "http://www.w3.org/TR/2001/REC-SVG-20010904/DTD/svg10.dtd">
<svg version="1.0" xmlns="http://www.w3.org/2000/svg"
 width="324.000000pt" height="324.000000pt" viewBox="0 0 324.000000 324.000000"
 preserveAspectRatio="xMidYMid meet">
<metadata>
Created by potrace 1.14, written by Peter Selinger 2001-2017
</metadata>
<g transform="translate(0.000000,324.000000) scale(0.100000,-0.100000)"
fill="#000000" stroke="none">
<path d="M1469 3236 c-2 -2 -28 -7 -58 -10 -432 -51 -846 -300 -1108 -664
-137 -191 -248 -456 -279 -665 -2 -18 -8 -52 -12 -77 -9 -58 -9 -318 0 -395
47 -396 252 -778 554 -1035 65 -55 123 -100 129 -100 3 0 21 -11 38 -24 98
-73 330 -177 482 -214 163 -40 218 -47 410 -46 156 0 210 4 300 23 335 68 625
226 860 467 60 62 165 187 165 197 0 3 16 29 36 58 121 180 212 435 243 684 9
70 7 357 -3 405 -2 14 -7 43 -11 65 -27 185 -132 442 -255 622 -71 105 -102
143 -196 237 -92 93 -130 124 -238 197 -192 130 -392 211 -631 256 -69 13
-416 28 -426 19z"/>
</g>
</svg>
